<?xml version="1.0" standalone="no"?>
<!DOCTYPE svg PUBLIC "-//W3C//DTD SVG 20010904//EN"
 "http://www.w3.org/TR/2001/REC-SVG-20010904/DTD/svg10.dtd">
<svg version="1.0" xmlns="http://www.w3.org/2000/svg"
 width="256.000000pt" height="256.000000pt" viewBox="0 0 256.000000 256.000000"
 preserveAspectRatio="xMidYMid meet">
<metadata>
Created by potrace 1.11, written by Peter Selinger 2001-2013
</metadata>
<g transform="translate(0.000000,256.000000) scale(0.100000,-0.100000)"
fill="#000000" stroke="none">
<path d="M1987 1502 c-30 -18 -39 -38 -42 -95 -2 -21 -5 -41 -8 -43 -4 -5
-175 -6 -417 -5 -30 1 -66 -1 -80 -2 -14 -2 -34 0 -46 4 -11 4 -27 3 -36 -2
-9 -5 -19 -5 -22 -1 -5 8 -69 7 -93 -2 -7 -3 -13 -2 -13 2 0 4 -55 7 -123 7
-107 0 -124 -2 -139 -19 -10 -10 -18 -27 -18 -38 0 -19 -1 -19 -93 -20 -51 -1
-60 -4 -67 -23 -8 -20 -15 -22 -80 -21 -40 1 -74 -2 -77 -7 -2 -4 -13 -2 -24
3 -10 6 -19 7 -19 2 0 -5 -11 -8 -25 -7 -14 2 -23 0 -21 -4 3 -4 55 -7 116 -6
107 1 113 0 127 -22 14 -20 23 -23 87 -23 70 0 71 -1 86 -33 l15 -32 145 2
c80 2 199 5 265 7 66 2 220 7 343 11 l222 7 1 -34 c0 -18 2 -42 5 -53 2 -11 5
-30 6 -42 3 -26 26 -30 61 -12 32 17 36 26 43 101 7 68 15 80 50 73 11 -2 22
-4 27 -4 4 -1 7 -7 7 -14 0 -21 31 -43 62 -45 20 -1 34 7 55 34 23 31 27 46
29 112 3 117 -38 175 -104 151 -12 -5 -27 -19 -33 -32 -8 -19 -19 -24 -49 -25
-37 -2 -38 -1 -46 41 -4 23 -7 45 -6 50 1 4 -2 7 -7 7 -5 0 -9 6 -8 13 2 51
-16 63 -56 39z"/>
<path d="M483 1239 c-9 -11 -6 -14 18 -14 16 -1 29 3 29 8 0 5 -6 7 -14 4 -8
-3 -16 -1 -18 5 -2 6 -8 5 -15 -3z"/>
<path d="M377 1233 c-3 -5 5 -8 18 -8 13 0 21 3 18 8 -2 4 -10 7 -18 7 -8 0
-16 -3 -18 -7z"/>
<path d="M436 1228 c3 -5 10 -6 15 -3 13 9 11 12 -6 12 -8 0 -12 -4 -9 -9z"/>
</g>
</svg>
